<?xml version="1.0" encoding="utf-8"?>
<!-- Generator: Adobe Illustrator 22.1.0, SVG Export Plug-In . SVG Version: 6.00 Build 0)  -->
<svg version="1.1" id="Layer_1" xmlns="http://www.w3.org/2000/svg" xmlns:xlink="http://www.w3.org/1999/xlink" x="0px" y="0px"
	 viewBox="0 0 220 220" style="enable-background:new 0 0 220 220;" xml:space="preserve">
<style type="text/css">
	.st0{fill:#34469C;stroke:#34469C;stroke-width:0.25;stroke-miterlimit:10;}
</style>
<g>
	<path class="st0" d="M70.1,63.4c0,5.8,0,11.4,0,17.1c0,0.4,0.6,1,1,1.1c5.6,0.7,9.6,4,12.5,8.4c8.5,13.4,8.5,27,0,40.3
		c-2.8,4.4-6.8,7.7-12.3,8.4c-1.2,0.2-1.3,0.8-1.3,1.8c0,5.1,0,10.1,0,15.2c0,0.4,0.1,0.9,0.2,1.3c5.5,0.3,10.4-1.2,15-3.7
		c13.6-7.6,20.6-19.6,23.1-34.6c0.3-1.9,0.5-3.7,0.7-5.9c0.4,0.5,0.5,0.5,0.5,0.7c0.2,1.8,0.3,3.7,0.6,5.5
		c2.4,14.5,8.9,26.2,21.9,33.8c5,2.9,10.4,4.6,16.4,4.2c0-5.7,0-11.3,0-16.9c0-0.4-0.7-1.2-1.1-1.2c-5.5-0.7-9.4-4-12.4-8.3
		c-8.5-12.4-8.5-28.3,0-40.7c2.3-3.4,5.4-6,9.4-7.5c1.3-0.5,3.4-0.6,3.9-1.5c0.7-1.2,0.2-3.1,0.2-4.6c0-4.2,0-8.4,0-12.6
		c-1.7,0-3.2-0.2-4.7,0c-8.7,1.5-15.9,5.8-21.7,12.3c-7.5,8.5-11.7,18.6-12.4,30c0,0.5-0.2,1-0.3,1.5c-0.7-2-0.8-4.1-1.2-6
		c-2-11.9-7.1-22.2-16.7-29.9C85.5,66.4,78.6,63.1,70.1,63.4z M109.3,62.5c8.5,0,15.6-6.9,15.6-15.2c0.1-8.3-6.9-15.3-15.4-15.4
		c-8.5-0.1-15.7,6.9-15.7,15.3C93.7,55.5,100.8,62.4,109.3,62.5z M46.3,125.5c8.5,0,15.5-7,15.5-15.3c0-8.3-7-15.3-15.5-15.3
		c-8.5,0-15.7,7-15.6,15.4C30.7,118.7,37.8,125.6,46.3,125.5z M172.4,125.5c8.5,0,15.5-7,15.6-15.3c0-8.3-7-15.3-15.5-15.4
		c-8.5-0.1-15.7,7-15.7,15.4C156.9,118.6,163.9,125.5,172.4,125.5z M109.4,188.6c8.5-0.1,15.5-7,15.5-15.3c0-8.3-7.1-15.3-15.6-15.3
		c-8.5,0-15.7,7-15.6,15.4C93.8,181.7,100.9,188.7,109.4,188.6z"/>
	<path class="st0" d="M70.1,63.4c8.5-0.3,15.4,3,21.6,8c9.5,7.7,14.6,18,16.7,29.9c0.3,2,0.5,4,1.2,6c0.1-0.5,0.3-1,0.3-1.5
		c0.7-11.4,4.8-21.5,12.4-30c5.8-6.5,13-10.8,21.7-12.3c1.5-0.2,3,0,4.7,0c0,4.2,0,8.4,0,12.6c0,1.6,0.5,3.5-0.2,4.6
		c-0.6,0.9-2.6,1-3.9,1.5c-3.9,1.5-7,4.1-9.4,7.5c-8.5,12.4-8.6,28.3,0,40.7c3,4.3,6.9,7.6,12.4,8.3c0.4,0.1,1.1,0.8,1.1,1.2
		c0.1,5.6,0,11.1,0,16.9c-6,0.4-11.4-1.3-16.4-4.2c-13-7.6-19.5-19.3-21.9-33.8c-0.3-1.8-0.4-3.6-0.6-5.5c0-0.1-0.2-0.2-0.5-0.7
		c-0.3,2.2-0.4,4-0.7,5.9c-2.5,15-9.5,27-23.1,34.6c-4.6,2.6-9.5,4-15,3.7c-0.1-0.4-0.2-0.9-0.2-1.3c0-5.1,0-10.1,0-15.2
		c0-0.9,0.1-1.6,1.3-1.8c5.5-0.7,9.5-3.9,12.3-8.4c8.5-13.4,8.6-27,0-40.3c-2.9-4.5-6.9-7.7-12.5-8.4c-0.4-0.1-1-0.7-1-1.1
		C70.1,74.9,70.1,69.2,70.1,63.4z"/>
	<path class="st0" d="M109.3,62.5c-8.5,0-15.5-7-15.5-15.3c0-8.4,7.2-15.4,15.7-15.3c8.5,0.1,15.5,7.1,15.4,15.4
		C124.8,55.6,117.8,62.5,109.3,62.5z"/>
	<path class="st0" d="M46.3,125.5c-8.5,0-15.6-6.9-15.6-15.2c-0.1-8.4,7.1-15.5,15.6-15.4c8.5,0,15.5,7,15.5,15.3
		C61.8,118.5,54.8,125.5,46.3,125.5z"/>
	<path class="st0" d="M172.4,125.5c-8.5,0-15.6-6.9-15.6-15.3c0-8.4,7.1-15.5,15.7-15.4c8.5,0.1,15.5,7,15.5,15.4
		C188,118.6,180.9,125.5,172.4,125.5z"/>
	<path class="st0" d="M109.4,188.6c-8.5,0.1-15.6-6.9-15.7-15.2c-0.1-8.4,7.1-15.5,15.6-15.4c8.5,0,15.5,7,15.6,15.3
		C124.9,181.6,117.9,188.5,109.4,188.6z"/>
</g>
</svg>
